<svg width="1920" height="400" viewBox="0 0 1920 400" fill="none" xmlns="http://www.w3.org/2000/svg">
  <defs>
    <linearGradient id="wave-grad" x1="0%" y1="0%" x2="100%" y2="0%">
      <stop offset="0%" style="stop-color:#0C1E3A;stop-opacity:0.05" />
      <stop offset="50%" style="stop-color:#2AD573;stop-opacity:0.08" />
      <stop offset="100%" style="stop-color:#0C1E3A;stop-opacity:0.05" />
    </linearGradient>
  </defs>
  <path d="M0,120 C320,80 480,160 960,120 C1440,80 1600,160 1920,120 L1920,400 L0,400 Z" fill="url(#wave-grad)" opacity="0.6"/>
  <path d="M0,180 C320,140 480,220 960,180 C1440,140 1600,220 1920,180 L1920,400 L0,400 Z" fill="url(#wave-grad)" opacity="0.4"/>
  <path d="M0,240 C320,200 480,280 960,240 C1440,200 1600,280 1920,240 L1920,400 L0,400 Z" fill="url(#wave-grad)" opacity="0.2"/>
</svg>
